<svg width="202" height="232" viewBox="0 0 202 232" fill="none" xmlns="http://www.w3.org/2000/svg">
<rect x="5" y="51" width="37" height="39" fill="#323565"/>
<rect x="5" y="99" width="37" height="39" fill="#323565"/>
<path d="M5 8C5 3.58172 8.58172 0 13 0H43V42H5V8Z" fill="#323565"/>
<path d="M5 147H43V189H13C8.58172 189 5 185.418 5 181V147Z" fill="#323565"/>
<rect x="159" y="51" width="37" height="39" fill="#323565"/>
<rect x="159" y="99" width="37" height="39" fill="#323565"/>
<path d="M159 0H189C193.418 0 197 3.58172 197 8V42H159V0Z" fill="#323565"/>
<path d="M159 147H197V181C197 185.418 193.418 189 189 189H159V147Z" fill="#323565"/>
<rect x="52" y="99" width="98" height="90" fill="#323565"/>
<rect x="52" width="98" height="90" fill="#323565"/>
<path d="M1.3125 225V204.636H10.1023C11.6136 204.636 12.9361 204.935 14.0696 205.531C15.2031 206.128 16.0848 206.966 16.7145 208.047C17.3442 209.127 17.6591 210.39 17.6591 211.835C17.6591 213.294 17.3343 214.556 16.6847 215.624C16.0417 216.691 15.1368 217.513 13.9702 218.089C12.8101 218.666 11.4545 218.955 9.90341 218.955H4.65341V214.659H8.78977C9.43939 214.659 9.9929 214.546 10.4503 214.321C10.9143 214.089 11.2689 213.761 11.5142 213.337C11.7661 212.912 11.892 212.412 11.892 211.835C11.892 211.252 11.7661 210.755 11.5142 210.344C11.2689 209.926 10.9143 209.608 10.4503 209.389C9.9929 209.164 9.43939 209.051 8.78977 209.051H6.84091V225H1.3125ZM19.6875 225V204.636H25.2159V212.591H32.5341V204.636H38.0625V225H32.5341V217.045H25.2159V225H19.6875ZM60.4148 214.818C60.4148 217.085 59.974 218.998 59.0923 220.555C58.2107 222.107 57.0208 223.283 55.5227 224.085C54.0246 224.881 52.3542 225.278 50.5114 225.278C48.6553 225.278 46.9782 224.877 45.4801 224.075C43.9886 223.267 42.8021 222.087 41.9205 220.536C41.0455 218.978 40.608 217.072 40.608 214.818C40.608 212.551 41.0455 210.642 41.9205 209.091C42.8021 207.533 43.9886 206.357 45.4801 205.561C46.9782 204.759 48.6553 204.358 50.5114 204.358C52.3542 204.358 54.0246 204.759 55.5227 205.561C57.0208 206.357 58.2107 207.533 59.0923 209.091C59.974 210.642 60.4148 212.551 60.4148 214.818ZM54.7273 214.818C54.7273 213.598 54.5649 212.571 54.2401 211.736C53.9219 210.894 53.4479 210.258 52.8182 209.827C52.1951 209.389 51.4261 209.17 50.5114 209.17C49.5966 209.17 48.8243 209.389 48.1946 209.827C47.5715 210.258 47.0975 210.894 46.7727 211.736C46.4545 212.571 46.2955 213.598 46.2955 214.818C46.2955 216.038 46.4545 217.069 46.7727 217.911C47.0975 218.746 47.5715 219.382 48.1946 219.82C48.8243 220.25 49.5966 220.466 50.5114 220.466C51.4261 220.466 52.1951 220.25 52.8182 219.82C53.4479 219.382 53.9219 218.746 54.2401 217.911C54.5649 217.069 54.7273 216.038 54.7273 214.818ZM61.4588 209.091V204.636H79.1577V209.091H73.0327V225H67.5838V209.091H61.4588ZM100.009 214.818C100.009 217.085 99.5677 218.998 98.6861 220.555C97.8045 222.107 96.6146 223.283 95.1165 224.085C93.6184 224.881 91.9479 225.278 90.1051 225.278C88.2491 225.278 86.572 224.877 85.0739 224.075C83.5824 223.267 82.3958 222.087 81.5142 220.536C80.6392 218.978 80.2017 217.072 80.2017 214.818C80.2017 212.551 80.6392 210.642 81.5142 209.091C82.3958 207.533 83.5824 206.357 85.0739 205.561C86.572 204.759 88.2491 204.358 90.1051 204.358C91.9479 204.358 93.6184 204.759 95.1165 205.561C96.6146 206.357 97.8045 207.533 98.6861 209.091C99.5677 210.642 100.009 212.551 100.009 214.818ZM94.321 214.818C94.321 213.598 94.1586 212.571 93.8338 211.736C93.5156 210.894 93.0417 210.258 92.4119 209.827C91.7888 209.389 91.0199 209.17 90.1051 209.17C89.1903 209.17 88.4181 209.389 87.7884 209.827C87.1652 210.258 86.6913 210.894 86.3665 211.736C86.0483 212.571 85.8892 213.598 85.8892 214.818C85.8892 216.038 86.0483 217.069 86.3665 217.911C86.6913 218.746 87.1652 219.382 87.7884 219.82C88.4181 220.25 89.1903 220.466 90.1051 220.466C91.0199 220.466 91.7888 220.25 92.4119 219.82C93.0417 219.382 93.5156 218.746 93.8338 217.911C94.1586 217.069 94.321 216.038 94.321 214.818ZM119.122 211C119.069 210.337 118.82 209.82 118.376 209.449C117.939 209.078 117.272 208.892 116.377 208.892C115.807 208.892 115.34 208.962 114.975 209.101C114.618 209.233 114.352 209.416 114.18 209.648C114.008 209.88 113.918 210.145 113.912 210.443C113.898 210.688 113.941 210.911 114.041 211.109C114.147 211.302 114.313 211.477 114.538 211.636C114.763 211.789 115.052 211.928 115.403 212.054C115.754 212.18 116.172 212.293 116.656 212.392L118.326 212.75C119.453 212.989 120.418 213.304 121.22 213.695C122.022 214.086 122.678 214.546 123.189 215.077C123.699 215.6 124.074 216.19 124.312 216.847C124.557 217.503 124.683 218.219 124.69 218.994C124.683 220.333 124.349 221.467 123.686 222.395C123.023 223.323 122.075 224.029 120.842 224.513C119.616 224.997 118.141 225.239 116.417 225.239C114.647 225.239 113.103 224.977 111.784 224.453C110.471 223.929 109.45 223.124 108.721 222.037C107.999 220.943 107.634 219.545 107.627 217.841H112.877C112.911 218.464 113.066 218.988 113.345 219.412C113.623 219.836 114.014 220.158 114.518 220.376C115.029 220.595 115.635 220.705 116.338 220.705C116.928 220.705 117.422 220.632 117.819 220.486C118.217 220.34 118.519 220.138 118.724 219.879C118.93 219.621 119.036 219.326 119.042 218.994C119.036 218.683 118.933 218.411 118.734 218.179C118.542 217.94 118.224 217.728 117.779 217.543C117.335 217.35 116.735 217.171 115.98 217.006L113.951 216.568C112.148 216.177 110.726 215.524 109.686 214.609C108.652 213.688 108.138 212.432 108.145 210.841C108.138 209.548 108.483 208.418 109.179 207.45C109.881 206.476 110.852 205.717 112.092 205.173C113.338 204.63 114.767 204.358 116.377 204.358C118.021 204.358 119.443 204.633 120.643 205.183C121.843 205.733 122.768 206.509 123.417 207.51C124.074 208.504 124.405 209.668 124.412 211H119.122ZM126.793 225V204.636H135.583C137.094 204.636 138.417 204.935 139.55 205.531C140.684 206.128 141.565 206.966 142.195 208.047C142.825 209.127 143.14 210.39 143.14 211.835C143.14 213.294 142.815 214.556 142.165 215.624C141.522 216.691 140.617 217.513 139.451 218.089C138.291 218.666 136.935 218.955 135.384 218.955H130.134V214.659H134.27C134.92 214.659 135.473 214.546 135.931 214.321C136.395 214.089 136.749 213.761 136.995 213.337C137.247 212.912 137.373 212.412 137.373 211.835C137.373 211.252 137.247 210.755 136.995 210.344C136.749 209.926 136.395 209.608 135.931 209.389C135.473 209.164 134.92 209.051 134.27 209.051H132.321V225H126.793ZM147.915 225H141.949L148.67 204.636H156.227L162.949 225H156.983L152.528 210.244H152.369L147.915 225ZM146.801 216.966H158.017V221.102H146.801V216.966ZM182.964 212.273H177.357C177.317 211.809 177.211 211.388 177.038 211.01C176.873 210.632 176.641 210.307 176.342 210.036C176.051 209.757 175.696 209.545 175.278 209.399C174.861 209.247 174.387 209.17 173.857 209.17C172.929 209.17 172.143 209.396 171.5 209.847C170.864 210.297 170.38 210.944 170.048 211.786C169.723 212.627 169.561 213.638 169.561 214.818C169.561 216.064 169.727 217.108 170.058 217.95C170.396 218.786 170.884 219.415 171.52 219.839C172.156 220.257 172.922 220.466 173.817 220.466C174.327 220.466 174.785 220.403 175.189 220.277C175.593 220.144 175.945 219.955 176.243 219.71C176.541 219.465 176.783 219.17 176.969 218.825C177.161 218.474 177.29 218.08 177.357 217.642L182.964 217.682C182.898 218.544 182.656 219.422 182.239 220.317C181.821 221.205 181.228 222.027 180.459 222.783C179.696 223.532 178.752 224.135 177.625 224.592C176.498 225.05 175.189 225.278 173.697 225.278C171.828 225.278 170.151 224.877 168.666 224.075C167.188 223.273 166.018 222.093 165.156 220.536C164.301 218.978 163.874 217.072 163.874 214.818C163.874 212.551 164.311 210.642 165.186 209.091C166.061 207.533 167.241 206.357 168.726 205.561C170.211 204.759 171.868 204.358 173.697 204.358C174.983 204.358 176.167 204.534 177.247 204.885C178.328 205.236 179.276 205.75 180.091 206.426C180.906 207.096 181.563 207.921 182.06 208.902C182.557 209.883 182.858 211.007 182.964 212.273ZM185.473 225V204.636H200.149V209.091H191.001V212.591H199.393V217.045H191.001V220.545H200.109V225H185.473Z" fill="#323565"/>
</svg>
